# Created by Open3D 
# object name: deformed_meshstep1720
# number of vertices: 8
# number of triangles: 12
mtllib deformed_meshstep1720.mtl
usemtl deformed_meshstep1720
v -0.888148 -1 1 1 1 1
vn -0.728539 -0.484371 0.484371
v -0.837499 1 1 1 1 1
vn -0.29705 0.646561 0.702652
v -0.837499 -1 -1 1 1 1
vn -0.29705 -0.702652 -0.646561
v -1.30154 1 -1 1 1 1
vn -0.851779 0.370455 -0.370455
v 0.837499 -1 1 1 1 1
vn 0.333333 -0.666667 0.666667
v 0.888148 1 1 1 1 1
vn 0.809175 0.336773 0.481477
v 0.888148 -1 -1 1 1 1
vn 0.809175 -0.481477 -0.336773
v 1.25089 1 -1 1 1 1
vn 0.336306 0.66592 -0.66592
f 1//1 2//2 4//4
f 1//1 4//4 3//3
f 3//3 4//4 8//8
f 3//3 8//8 7//7
f 7//7 8//8 6//6
f 7//7 6//6 5//5
f 5//5 6//6 2//2
f 5//5 2//2 1//1
f 3//3 7//7 5//5
f 3//3 5//5 1//1
f 8//8 4//4 2//2
f 8//8 2//2 6//6
